<svg width="512" height="512" xmlns="http://www.w3.org/2000/svg">

 <g>
  <title>background</title>
  <rect fill="none" id="canvas_background" height="402" width="582" y="-1" x="-1"/>
 </g>
 <g>
  <title>Layer 1</title>
  <path id="svg_2" fill-rule="evenodd" clip-rule="evenodd" fill="#d0884d" d="m512,256.204c0,-141.633 -114.579,-256.204 -255.804,-256.204c-141.627,0 -256.196,114.571 -256.196,256.204c0,141.225 114.569,255.796 256.196,255.796c141.225,0 255.804,-114.571 255.804,-255.796l0,0z"/>
  <path id="svg_3" fill-rule="evenodd" clip-rule="evenodd" fill="#3e4c62" d="m230.737,374.352l-14.72,43.76l-18.297,0l47.339,-139.629l21.484,0l47.737,139.629l-19.49,0l-14.72,-43.76l-49.333,0zm45.747,-14.316l-13.527,-39.785c-3.178,-9.152 -5.166,-17.508 -7.16,-25.461l-0.794,0c-1.987,7.953 -3.974,17.105 -6.764,25.461l-13.527,40.181l41.772,0l0,-0.396z"/>
  <path id="svg_4" fill-rule="evenodd" clip-rule="evenodd" fill="#3e4c62" d="m295.186,113.775l19.49,0l-47.738,139.639l-21.479,0l-47.739,-139.639l18.298,0l14.72,43.762l49.333,0l15.115,-43.762m-60.474,58.084l13.527,40.184c2.79,8.355 4.776,17.502 6.764,25.458l0.794,0c1.994,-7.956 3.982,-16.706 7.16,-25.458l13.527,-39.786l-41.772,0l0,-0.398z"/>
  <rect id="svg_5" fill-rule="evenodd" clip-rule="evenodd" fill="#eeeeee" y="137.651" x="83.938" width="344.115" height="229.141"/>
  <path id="svg_6" fill="#3e4c62" d="m166.287,278.076l-10.738,0l0,-5.168l0,0c-2.385,3.976 -5.968,5.97 -10.744,5.97c-3.18,0 -5.962,-0.802 -7.956,-2.787c-1.988,-1.99 -3.181,-4.771 -3.181,-7.961c0,-6.761 4.373,-10.734 12.33,-11.926l9.947,-1.201c0,-3.974 -2.384,-5.962 -6.364,-5.962c-4.38,0 -8.354,1.192 -12.336,3.977l0,-8.355c1.598,-0.794 3.584,-1.59 6.367,-1.986c2.788,-0.796 5.173,-1.192 7.161,-1.192c10.348,0 15.514,5.166 15.514,15.514l0,21.077zm-10.342,-14.313l0,-2.394l-6.763,0.795c-3.584,0.398 -5.173,1.994 -5.173,4.773c0,1.192 0.396,2.385 1.191,3.182c0.797,0.803 1.995,1.201 3.584,1.201c1.988,0 3.577,-0.798 5.173,-2.394c1.193,-1.192 1.988,-3.177 1.988,-5.163l0,0zm63.252,-2.394l-13.123,0l0,13.13l-7.162,0l0,-13.13l-13.525,0l0,-7.16l13.525,0l0,-13.521l7.162,0l0,13.521l13.123,0l0,7.16zm24.273,12.732l-0.396,0l0,3.976l-10.747,0l0,-52.908l10.747,0l0,22.674l0.396,0c2.385,-3.974 6.358,-6.358 11.533,-6.358c4.377,0 7.954,1.589 10.348,4.77c2.779,3.187 3.972,7.558 3.972,13.129c0,5.969 -1.588,10.737 -4.375,14.323c-2.783,3.578 -6.76,5.173 -11.535,5.173c-4.378,-0.002 -7.955,-1.597 -9.943,-4.779l0,0zm-0.397,-15.116l0,3.577c0,2.393 0.396,4.375 1.985,5.971c1.192,1.192 2.784,1.989 5.175,1.989c2.385,0 4.371,-0.797 5.563,-2.788c1.597,-1.985 1.994,-4.777 1.994,-8.353c0,-2.781 -0.397,-5.173 -1.595,-6.764c-1.592,-1.589 -3.181,-2.385 -5.566,-2.385c-1.993,0 -3.98,0.796 -5.571,2.385c-1.192,1.592 -1.985,3.587 -1.985,6.368l0,0zm80.751,-5.174l-33.811,0l0,-7.161l33.811,0l0,7.161zm0,15.116l-33.811,0l0,-7.162l33.811,0l0,7.162zm39.79,7.957c-2.386,1.599 -5.971,1.994 -10.748,1.994c-5.563,0 -9.943,-1.595 -13.126,-4.777c-3.581,-3.179 -5.172,-7.558 -5.172,-12.731c0,-6.366 1.99,-11.136 5.571,-14.322c3.577,-3.577 8.355,-5.563 14.321,-5.563c4.375,0 7.558,0.794 9.153,1.986l0,9.148c-1.99,-1.589 -4.778,-2.385 -7.562,-2.385c-3.187,0 -5.572,0.796 -7.558,2.784c-1.986,1.589 -2.793,4.378 -2.793,7.555c0,3.19 0.807,5.576 2.793,7.162c1.591,1.991 3.976,2.788 7.158,2.788c2.784,0 5.575,-0.797 7.961,-2.393l0,8.754l0.002,0z"/>
  <path id="svg_7" fill="#3e4c62" d="m171.063,241.88l0,0l6.765,0l0,3.181l-11.144,0l0,-2.783l4.778,-4.776c1.192,-1.192 1.589,-1.988 2.385,-2.385c0.396,-0.795 0.396,-1.598 0.396,-2.391c0,-1.591 -0.795,-2.385 -2.384,-2.385c-1.59,0 -3.181,0.794 -4.38,1.985l0,-3.178c1.598,-1.193 3.187,-1.59 5.175,-1.59c1.589,0 3.179,0.396 3.98,1.192c1.192,0.794 1.591,1.986 1.591,3.575c0,1.995 -1.192,4.38 -3.585,6.367l-3.577,3.188z"/>
  <path id="svg_8" fill="#3e4c62" d="m275.691,241.88l0,0l6.764,0l0,3.181l-11.143,0l0,-2.783l4.778,-4.776c1.192,-1.192 1.587,-1.988 1.985,-2.385c0.398,-0.795 0.794,-1.598 0.794,-2.391c0,-1.591 -0.794,-2.385 -2.779,-2.385c-1.192,0 -2.784,0.794 -3.977,1.985l0,-3.178c1.591,-1.193 3.178,-1.59 5.169,-1.59c1.587,0 2.787,0.396 3.979,1.192c0.794,0.794 1.587,1.986 1.587,3.575c0,1.995 -1.192,4.38 -3.581,6.367l-3.576,3.188z"/>
  <path id="svg_9" fill="#3e4c62" d="m372.363,241.88l0,0l6.76,0l0,3.181l-11.142,0l0,-2.783l4.776,-4.776c1.193,-1.192 1.593,-1.988 1.99,-2.385c0.396,-0.795 0.795,-1.598 0.795,-2.391c0,-1.591 -0.795,-2.385 -2.785,-2.385c-1.192,0 -2.778,0.794 -3.979,1.985l0,-3.178c1.201,-1.193 3.187,-1.59 4.777,-1.59c1.987,0 3.183,0.396 4.375,1.192c0.798,0.794 1.592,1.986 1.592,3.575c0,1.995 -1.192,4.38 -3.979,6.367l-3.18,3.188z"/>
 </g>
</svg>