<svg width="110" height="110" xmlns="http://www.w3.org/2000/svg">

 <g>
  <title>background</title>
  <rect fill="none" id="canvas_background" height="402" width="582" y="-1" x="-1"/>
 </g>
 <g>
  <title>Layer 1</title>
  <circle id="svg_1" fill="#d0884d" r="55" cy="55" cx="55"/>
  <path id="svg_3" fill="#d0d0c0" d="m87,81c0,1.105 -0.895,2 -2,2l-60,0c-1.105,0 -2,-0.895 -2,-2l0,-40c0,-1.105 0.895,-2 2,-2l22,0l0,-2c0,-1.105 0.895,-2 2,-2l36,0c1.105,0 2,0.895 2,2l0,44z"/>
  <path id="svg_4" fill="#d0d0c0" d="m49,35c-1.104,0 -2,0.896 -2,2l0,2l-22,0c-1.104,0 -2,0.896 -2,2l0,40c0,0.315 0.079,0.609 0.209,0.874l46.874,-46.874l-21.083,0z"/>
  <path id="svg_5" fill="#616c7a" d="m41,39l-14,0l0,-3c0,-0.552 0.448,-1 1,-1l12,0c0.552,0 1,0.448 1,1l0,3z"/>
  <path id="svg_6" fill="#66a2c4" d="m83,46c0,0.552 -0.448,1 -1,1l-10,0c-0.552,0 -1,-0.448 -1,-1l0,-6c0,-0.552 0.448,-1 1,-1l10,0c0.552,0 1,0.448 1,1l0,6z"/>
  <circle id="svg_7" fill="#b64b4b" r="2" cy="45" cx="33"/>
  <rect id="svg_8" fill="#d0d0c0" y="35" x="29" width="2" height="4"/>
  <rect id="svg_9" fill="#d0d0c0" y="35" x="33" width="2" height="4"/>
  <rect id="svg_10" fill="#d0d0c0" y="35" x="37" width="2" height="4"/>
  <rect id="svg_11" fill="#616c7a" y="51" x="23" width="64" height="28"/>
  <polygon id="svg_12" fill="#616c7a" points="23,51 23,79 26.083,79 54.083,51   "/>
  <circle id="svg_13" fill="#3b445a" r="16" cy="63" cx="59"/>
  <circle id="svg_14" fill="#66a2c4" r="12" cy="63" cx="59"/>
  <path id="svg_15" fill="#66a2c4" d="m59,51c-6.627,0 -12,5.373 -12,12c0,3.338 1.365,6.355 3.564,8.531l16.966,-16.966c-2.175,-2.2 -5.192,-3.565 -8.53,-3.565z"/>
  <path id="svg_16" fill="#b64b4b" d="m39,69c0,1.105 -0.895,2 -2,2s-2,-0.895 -2,-2l0,-4c0,-1.105 0.895,-2 2,-2s2,0.895 2,2l0,4z"/>
 </g>
</svg>