<svg width="100" height="100" xmlns="http://www.w3.org/2000/svg">

 <g>
  <title>background</title>
  <rect fill="none" id="canvas_background" height="402" width="582" y="-1" x="-1"/>
 </g>
 <g>
  <title>Layer 1</title>
  <path id="svg_1" fill="#66a2c3" d="m50.147,0c-27.614,0 -50,22.386 -50,50c0,27.613 22.386,50 50,50s50,-22.387 50,-50c0,-27.615 -22.385,-50 -50,-50z"/>
  <path id="svg_2" fill="#e4be76" d="m93.141,24.477c-4.147,-6.972 -9.938,-12.85 -16.845,-17.096c-13.932,13.932 -37.795,37.795 -38.251,38.25c-1.357,1.357 -5.701,21.295 -4.763,22.233c0.961,0.962 20.415,-3.943 21.733,-5.263l38.126,-38.124z"/>
  <path id="svg_3" fill="#eeeeee" d="m46.521,54.107c-0.996,-0.996 -1.124,-5.367 -2.128,-6.37c-1.003,-1.005 -6.344,-2.105 -6.348,-2.106c-1.303,1.303 -5.356,19.724 -4.848,22.022l0.295,0.296c2.282,0.488 20.257,-4.081 21.523,-5.348c0,0 -1.146,-5.389 -2.127,-6.369c-0.981,-0.982 -5.369,-1.128 -6.367,-2.125z"/>
  <path id="svg_4" fill="#eeeeee" d="m33.171,67.506l0.026,0.146l0.296,0.297c2.286,0.487 20.256,-4.081 21.522,-5.348c0,0 -1.102,-5.344 -2.105,-6.349c-16.719,9.511 -19.33,11.016 -19.739,11.254z"/>
  <path id="svg_5" fill="#eeeeee" d="m33.164,67.435c0.305,-0.523 1.981,-3.438 11.229,-19.697c-1.004,-1.005 -6.349,-2.106 -6.349,-2.106c-1.267,1.266 -5.137,18.731 -4.88,21.803z"/>
  <path id="svg_6" fill="#b64b4b" d="m36.631,64.017c-0.687,-0.688 -1.866,-1.202 -2.961,-1.285c-0.466,2.772 -0.675,4.846 -0.388,5.133c0.279,0.28 2.129,0.062 4.637,-0.419c0.061,-1.213 -0.501,-2.642 -1.288,-3.429z"/>
  <path id="svg_7" fill="#d68645" d="m38.045,45.631s5.345,1.102 6.349,2.106c-0.015,0.024 36.883,-36.852 36.883,-36.852c-1.587,-1.264 -3.246,-2.439 -4.98,-3.506l-38.252,38.252z"/>
  <path id="svg_8" fill="#d68645" d="m89.701,19.431s-36.815,36.835 -36.791,36.822c1.004,1.005 2.105,6.349 2.105,6.349l38.125,-38.125c-1.043,-1.756 -2.195,-3.438 -3.439,-5.046z"/>
 </g>
</svg>