<svg xmlns="http://www.w3.org/2000/svg" viewBox="0 0 466 386" width="466" height="386">
	<style>
		tspan { white-space:pre }
		.shp0 { display: none;fill: none } 
		.shp1 { fill: #d2d3d5 } 
		.shp2 { fill: #4f5d73 } 
		.shp3 { fill: #f25757 } 
		.shp4 { fill: #e8484a } 
		.shp5 { fill: #a8a9aa } 
		.shp6 { fill: #6d6d6d } 
		.shp7 { fill: #dbdbdb } 
		.shp8 { fill: #d2d2d2 } 
		.shp9 { fill: #b5b5b5 } 
		.shp10 { fill: #3b6078 } 
		.shp11 { fill: #c93e3e } 
		.shp12 { fill: #9d9d9d } 
	</style>
	<g id="Layer">
		<path id="canvas_background" class="shp0" d="M-19,344h582v-402h-582z" />
	</g>
	<g id="Layer">
		<path id="svg_2" class="shp1" d="M291.75,373.26c-27.08,-3.31 -47.44,-26.31 -47.44,-53.6v-52.99h-85.47v52.99c0,27.29 -20.35,50.29 -47.44,53.6v0h180.35z" />
		<path id="svg_3" class="shp2" d="M390.11,261.14v-238.33c0,-12.49 -10.13,-22.62 -22.62,-22.62h-344.92c-12.49,0 -22.62,10.13 -22.62,22.62v238.33c0,12.49 10.13,22.62 22.62,22.62h344.92c12.49,0 22.62,-10.13 22.62,-22.62z" />
		<path id="svg_4" class="shp1" d="M358.94,379.67v-0.76c0,-3.12 -2.53,-5.65 -5.65,-5.65h-308.46c-3.12,0 -5.65,2.53 -5.65,5.65v0.76c0,3.12 2.53,5.65 5.65,5.65h308.46c3.12,0 5.65,-2.53 5.65,-5.65z" />
		<path id="svg_5" class="shp3" d="M0,23.73v214.27h391v-214.27c0,-0.7 -0.91,-1.73 -0.94,-2.73h-390.04c-0.03,1 -0.01,2.02 -0.01,2.73z" />
		<path id="svg_6" class="shp4" d="M0,23.73v213.99l390.56,-214.04c0,-0.7 -0.47,-1.68 -0.5,-2.68h-390.04c-0.03,1 -0.01,2.02 -0.01,2.73z" />
		<path id="svg_7" class="shp5" d="M158.83,301.19h85.47v-17.43h-85.47z" />
		<path id="svg_8" class="shp3" d="M391,238v-72h-125.74c-6.31,0 -11.26,5.22 -11.26,11.52v60.48z" />
		<path id="svg_9" class="shp2" d="M254,238v46h111.98c13.33,0 25.02,-11.04 25.02,-24.37v-21.63z" />
		<path id="svg_10" class="shp1" d="M271,366.07c-7,-3.96 -13,-9.3 -17,-15.59v22.53h17z" />
		<path id="svg_11" class="shp1" d="M253.97,385.33h22.32v-12.09h-22.32z" />
		<path id="svg_13" class="shp6" d="M421.61,374.63v-197.83c0,-5.91 -4.79,-10.7 -10.7,-10.7h-135.34c-5.91,0 -10.7,4.79 -10.7,10.7v197.83c0,5.91 4.79,10.7 10.7,10.7h135.34c5.91,0 10.7,-4.79 10.7,-10.7z" />
		<path id="svg_14" class="shp7" d="M264.88,355.1h156.74v-170.12h-156.74z" />
		<path id="svg_15" class="shp8" d="M421.61,184.98h-156.74v170.12z" />
		<path id="svg_16" class="shp9" d="M354.28,369.74v-0.47c0,-1.94 -1.58,-3.52 -3.52,-3.52h-15.03c-1.94,0 -3.52,1.58 -3.52,3.52v0.47c0,1.94 1.58,3.52 3.52,3.52h15.03c1.94,0 3.52,-1.58 3.52,-3.52z" />
		<path id="svg_17" class="shp7" d="M390.62,355.43h61.99v-73.81c0,-6.3 -5.11,-11.42 -11.42,-11.42h-39.16c-6.31,0 -11.42,5.11 -11.42,11.42v73.81z" />
		<path id="svg_18" class="shp6" d="M391,373.91c0,6.31 4.73,11.09 11.04,11.09h39.16c3.82,0 6.81,-1.56 8.81,-4.44v-25.56h-59z" />
		<path id="svg_20" class="shp10" d="M462.78,374.63v-93.73c0,-5.91 -4.79,-10.7 -10.7,-10.7h-40.59c-5.91,0 -10.7,4.79 -10.7,10.7v93.73c0,5.91 4.79,10.7 10.7,10.7h40.59c5.91,0 10.7,-4.79 10.7,-10.7z" />
		<path id="svg_21" class="shp11" d="M400.78,369.63h61.99v-89.51h-61.99z" />
		<path id="svg_22" class="shp4" d="M462.78,280.11h-61.99v89.51z" />
		<path id="svg_23" class="shp12" d="M438.2,377.25v-0.47c0,-1.94 -1.58,-3.52 -3.52,-3.52h-5.8c-1.95,0 -3.52,1.58 -3.52,3.52v0.47c0,1.94 1.58,3.52 3.52,3.52h5.8c1.94,0 3.52,-1.58 3.52,-3.52z" />
	</g>
</svg>