<svg width="64" height="64" xmlns="http://www.w3.org/2000/svg">

 <g>
  <title>background</title>
  <rect fill="none" id="canvas_background" height="402" width="582" y="-1" x="-1"/>
 </g>
 <g>
  <title>Layer 1</title>
  <circle id="svg_2" r="32" fill="#65b1ae" cy="32" cx="31.833"/>
  <rect id="svg_5" y="29.733325" x="16" width="4" height="4" fill="#65b1ae"/>
  <rect id="svg_7" y="36.866663" x="16" width="4" height="4" fill="#65b1ae"/>
  <rect id="svg_9" y="43.866663" x="16" width="4" height="4" fill="#65b1ae"/>
  <rect id="svg_11" y="22.866663" x="16" width="4" height="4" fill="#65b1ae"/>
  <rect id="svg_13" y="15.733325" x="16" width="4" height="4" fill="#65b1ae"/>
  <rect id="svg_15" y="30" x="44" width="4" height="4" fill="#65b1ae"/>
  <rect id="svg_17" y="37" x="44" width="4" height="4" fill="#65b1ae"/>
  <rect id="svg_19" y="43.866663" x="44" width="4" height="4" fill="#65b1ae"/>
  <rect id="svg_21" y="23" x="44" width="4" height="4" fill="#65b1ae"/>
  <rect id="svg_23" y="16" x="44" width="4" height="4" fill="#65b1ae"/>
  <rect id="svg_25" y="16" x="24" width="16" height="14" fill="#65b1ae"/>
  <rect id="svg_27" y="34" x="24" width="16" height="14" fill="#65b1ae"/>
  <path opacity="0.2" id="svg_29" fill="#ffffff" d="m48,14l-32,0c-2.209,0 -4,1.791 -4,4l0,32c0,2.209 1.791,4 4,4l32,0c2.209,0 4,-1.791 4,-4l0,-32c0,-2.209 -1.791,-4 -4,-4zm-28,36l-4,0l0,-4l4,0l0,4zm0,-7l-4,0l0,-4l4,0l0,4zm0,-7l-4,0l0,-4l4,0l0,4zm0,-7l-4,0l0,-4l4,0l0,4zm0,-7l-4,0l0,-4l4,0l0,4zm20,28l-16,0l0,-14l16,0l0,14zm0,-18l-16,0l0,-14l16,0l0,14zm8,18l-4,0l0,-4l4,0l0,4zm0,-7l-4,0l0,-4l4,0l0,4zm0,-7l-4,0l0,-4l4,0l0,4zm0,-7l-4,0l0,-4l4,0l0,4zm0,-7l-4,0l0,-4l4,0l0,4z"/>
  <path id="svg_31" fill="#eeeeee" d="m48,12l-32,0c-2.209,0 -4,1.791 -4,4l0,32c0,2.209 1.791,4 4,4l32,0c2.209,0 4,-1.791 4,-4l0,-32c0,-2.209 -1.791,-4 -4,-4zm-28,36l-4,0l0,-4l4,0l0,4zm0,-7l-4,0l0,-4l4,0l0,4zm0,-7l-4,0l0,-4l4,0l0,4zm0,-7l-4,0l0,-4l4,0l0,4zm0,-7l-4,0l0,-4l4,0l0,4zm20,28l-16,0l0,-14l16,0l0,14zm0,-18l-16,0l0,-14l16,0l0,14zm8,18l-4,0l0,-4l4,0l0,4zm0,-7l-4,0l0,-4l4,0l0,4zm0,-7l-4,0l0,-4l4,0l0,4zm0,-7l-4,0l0,-4l4,0l0,4zm0,-7l-4,0l0,-4l4,0l0,4z"/>
 </g>
</svg>