<svg width="512" height="512" xmlns="http://www.w3.org/2000/svg">

 <g>
  <title>background</title>
  <rect fill="none" id="canvas_background" height="402" width="582" y="-1" x="-1"/>
 </g>
 <g>
  <title>Layer 1</title>
  <circle id="svg_3" r="256" fill="#66a2c3" cy="256" cx="256"/>
  <path id="svg_4" fill="#66a2c3" d="m256,469.33386c-117.63152,0 -213.33334,-95.70187 -213.33334,-213.33334s95.70182,-213.33332 213.33334,-213.33332c117.63568,0 213.33334,95.70186 213.33334,213.33331s-95.69766,213.33335 -213.33334,213.33335z"/>
  <path fill="#505f75" id="svg_5" opacity="0.3" d="m383.99942,278.49173l0,-28.98186l-26.30453,-4.48108c-2.47733,-12.30558 -7.33222,-23.74133 -14.04322,-33.84266l15.44748,-21.79039l-20.49438,-20.49494l-21.79096,15.448c-10.10132,-6.71147 -21.53598,-11.56641 -33.84265,-14.04427l-4.4805,-26.30453l-28.98297,0l-4.47948,26.30453c-12.30612,2.47786 -23.74238,7.3328 -33.84372,14.04427l-21.79094,-15.448l-20.49386,20.49494l15.448,21.79039c-6.71094,10.10133 -11.56588,21.53708 -14.04427,33.84266l-26.30293,4.48108l0,28.98186l26.30293,4.48001c2.47839,12.30612 7.33333,23.74292 14.04427,33.84265l-15.448,21.79202l20.49386,20.49332l21.79253,-15.448c10.09975,6.71201 21.53601,11.56641 33.84213,14.04428l4.47948,26.30399l28.98297,0l4.4805,-26.30399c12.30667,-2.47787 23.74133,-7.33227 33.84265,-14.04428l21.79096,15.448l20.49438,-20.49332l-15.44748,-21.79202c6.711,-10.09973 11.56589,-21.53653 14.04322,-33.84265l26.30453,-4.48001zm-119.99942,34.6608c-27.14667,0 -49.15311,-22.00534 -49.15311,-49.15253c0,-27.14613 22.00644,-49.15199 49.15311,-49.15199c27.14609,0 49.1525,22.00586 49.1525,49.15199c0,27.14719 -22.00641,49.15253 -49.1525,49.15253z"/>
  <path id="svg_6" fill="#FFFFFF" d="m375.99942,270.49173l0,-28.98186l-26.30453,-4.48108c-2.47733,-12.30558 -7.33222,-23.74133 -14.04322,-33.84266l15.44748,-21.79039l-20.49438,-20.49494l-21.79096,15.448c-10.10132,-6.71147 -21.53598,-11.56641 -33.84265,-14.04427l-4.4805,-26.30453l-28.98297,0l-4.47946,26.30453c-12.30614,2.47786 -23.7424,7.3328 -33.84374,14.04427l-21.79094,-15.448l-20.49386,20.49494l15.448,21.79039c-6.71094,10.10133 -11.56586,21.53708 -14.04427,33.84266l-26.30293,4.48108l0,28.98186l26.30293,4.48001c2.47841,12.30612 7.33333,23.74292 14.04427,33.84265l-15.448,21.79202l20.49386,20.49332l21.79253,-15.448c10.09975,6.71201 21.53601,11.56641 33.84215,14.04428l4.47946,26.30399l28.98297,0l4.4805,-26.30399c12.30667,-2.47787 23.74133,-7.33227 33.84265,-14.04428l21.79096,15.448l20.49438,-20.49332l-15.44748,-21.79202c6.711,-10.09973 11.56589,-21.53653 14.04322,-33.84265l26.30453,-4.48001zm-119.99942,34.6608c-27.14667,0 -49.15311,-22.00534 -49.15311,-49.15253c0,-27.14613 22.00644,-49.15201 49.15311,-49.15201c27.14609,0 49.1525,22.00588 49.1525,49.15201c0,27.14719 -22.00641,49.15253 -49.1525,49.15253z"/>
 </g>
</svg>