<svg width="137.3" height="139.3" xmlns="http://www.w3.org/2000/svg" xmlns:xlink="http://www.w3.org/1999/xlink">
 <g>
  <title>background</title>
  <rect fill="none" id="canvas_background" height="402" width="582" y="-1" x="-1"/>
 </g>
 <g>
  <title>Layer 1</title>
  <path fill="#d3d3d3" opacity="0.7" id="XMLID_157_" d="m63.3,87.2c0,-1.4 -1.1,-2.5 -2.5,-2.5c-1.4,0 -2.5,1.1 -2.5,2.5c0,1.4 2.5,16.9 2.5,16.9s2.5,-15.5 2.5,-16.9z" class="st0"/>
  <path fill="#d3d3d3" opacity="0.7" id="XMLID_156_" d="m71,102.6c0,-1.4 -1.1,-2.5 -2.5,-2.5c-1.4,0 -2.5,1.1 -2.5,2.5c0,1.4 2.5,16.9 2.5,16.9s2.5,-15.5 2.5,-16.9z" class="st0"/>
  <path fill="#d3d3d3" opacity="0.7" id="XMLID_155_" d="m79.1,89.7c0,-1.4 -1.1,-2.5 -2.5,-2.5c-1.4,0 -2.5,1.1 -2.5,2.5c0,1.4 2.5,16.9 2.5,16.9s2.5,-15.5 2.5,-16.9z" class="st0"/>
  <rect fill="#ededef" y="76.6" x="58.6" width="20.1" id="XMLID_153_" height="6.6" class="st1"/>
  <circle fill="#4f5d73" r="66.199997" id="XMLID_151_" cy="69.6" cx="68.753164" class="st2"/>
  <defs>
   <circle r="66.2" id="XMLID_149_" cy="69.6" cx="68.7"/>
  </defs>
  <clipPath id="XMLID_40_">
   <use id="svg_1" xlink:href="#XMLID_149_"/>
  </clipPath>
  <polygon fill="#38404c" clip-path="url(#XMLID_40_)" opacity="0.19" points="96.7,36.9 134.8,74.1 134,135.8 89.2,133.9 44.1,89.6   " id="XMLID_150_" class="st3"/>
  <path fill="#c75c5c" id="XMLID_147_" d="m54.153164,79.8c6.6,6.6 8.1,16.3 4.6,24.3c2.4,-1.1 4.7,-2.6 6.7,-4.6c8.6,-8.6 8.6,-22.4 0,-31c-8.6,-8.6 -22.4,-8.6 -31,0c-2,2 -3.5,4.3 -4.6,6.7c8.1,-3.5 17.8,-1.9 24.3,4.6z" class="st4"/>
  <path fill="#c75c5c" id="XMLID_146_" d="m68.6,72.746836l-11.2,11.3c3.5,6.1 3.9,13.5 1.1,19.8c2.4,-1.1 4.7,-2.6 6.7,-4.6c7.2,-7.2 8.3,-18.1 3.4,-26.5z" class="st5"/>
  <path fill="#e0e0d1" id="XMLID_145_" d="m51.9,81.8c1.9,1.9 3.4,4 4.6,6.3c7.7,-2.6 16,-7.8 23.3,-15.1c11.6,-11.6 17.7,-25.5 17,-36.1c-10.6,-0.8 -24.5,5.4 -36.1,17c-7.3,7.3 -12.4,15.5 -15.1,23.3c2.3,1.2 4.4,2.7 6.3,4.6z" class="st6"/>
  <path fill="#e0e0d1" id="XMLID_144_" d="m96.8,37c0,0 -0.1,0 -0.1,0l-44.8,44.8c0,0 0,0 0.1,0.1c1.9,1.9 3.4,4 4.6,6.3c7.7,-2.6 16,-7.8 23.3,-15.1c11.5,-11.6 17.7,-25.5 16.9,-36.1z" class="st7"/>
  <path fill="#c75c5c" id="XMLID_143_" d="m85.8,47.9c2.4,2.4 4.7,4.8 6.8,7.3c3.1,-6.5 4.5,-12.8 4.2,-18.3c-5.5,-0.3 -11.8,1.1 -18.3,4.2c2.5,2.2 4.9,4.4 7.3,6.8z" class="st4"/>
  <path fill="#e0995e" id="XMLID_142_" d="m96.7,36.9l-10.9,11c0,0 0,0 0.1,0.1c2.4,2.4 4.7,4.8 6.8,7.3c3.1,-6.5 4.5,-12.8 4.2,-18.3c-0.1,-0.1 -0.2,-0.1 -0.2,-0.1z" class="st5"/>
  <path fill="#f5cf87" id="XMLID_141_" d="m66.1,67.6c-3.3,0.8 -8.3,4.2 -13.1,9c-4.8,4.8 -8.2,9.8 -9,13.1c3.3,-0.8 8.3,-4.2 13.1,-9c4.9,-4.8 8.2,-9.8 9,-13.1z" class="st4"/>
  <path fill="#e0995e" id="XMLID_140_" d="m66,67.7l-21.9,21.9c0,0.1 0,0.1 0,0.2c3.3,-0.8 8.3,-4.2 13.1,-9c4.8,-4.8 8.2,-9.8 9,-13.1c-0.1,-0.1 -0.2,-0.1 -0.2,0z" class="st5"/>
  <path fill="#4f5d73" id="XMLID_139_" d="m70.2,63.5c-3,-3 -3,-7.8 0,-10.8c3,-3 7.8,-3 10.8,0c3,3 3,7.8 0,10.8c-3,3 -7.8,3 -10.8,0l0,0z" class="st4"/>
  <path fill="#e0e0d1" id="XMLID_138_" d="m79.146836,54.4c-2.1,-2.1 -5.4,-2.1 -7.5,0c-2.1,2.1 -2.1,5.4 0,7.5c2.1,2.1 5.4,2.1 7.5,0c2,-2.1 2,-5.4 0,-7.5l0,0z" class="st8"/>
  <path fill="#4f5d73" id="XMLID_137_" d="m81,52.8c0,-0.1 0,-0.1 0,0l-1.7,1.6c0,0 0,0 0.1,0.1c2.1,2.1 2.1,5.4 0,7.5c-2.1,2.1 -5.4,2.1 -7.5,0c0,0 0,0 -0.1,-0.1l-1.6,1.6c0,0 0,0 0.1,0.1c3,3 7.8,3 10.8,0c2.9,-3.1 2.9,-7.9 -0.1,-10.8z" class="st5"/>
  <path fill="#e0e0d1" id="XMLID_136_" d="m79.4,61.9c2.1,-2.1 2.1,-5.4 0,-7.5c0,0 0,0 -0.1,-0.1l-7.5,7.5c0,0 0,0 0.1,0.1c2,2 5.4,2 7.5,0z" class="st9"/>
 </g>
</svg>