<svg width="64" height="64" xmlns="http://www.w3.org/2000/svg">

 <g>
  <title>background</title>
  <rect fill="none" id="canvas_background" height="402" width="582" y="-1" x="-1"/>
 </g>
 <g>
  <title>Layer 1</title>
  <circle id="svg_2" r="32" fill="#c75c5c" cy="32" cx="32.153868"/>
  <path opacity="0.2" id="svg_5" fill="#231F20" d="m44,48c0,2.209 -1.791,4 -4,4l-16,0c-2.209,0 -4,-1.791 -4,-4l0,-32c0,-2.209 1.791,-4 4,-4l16,0c2.209,0 4,1.791 4,4l0,32z"/>
  <path stroke="#e0995e" id="svg_8" fill="#f5cf87" d="m24,48.5c-1.379,0 -2.5,-1.121 -2.5,-2.5l0,-32c0,-1.379 1.121,-2.5 2.5,-2.5l16,0c1.379,0 2.5,1.121 2.5,2.5l0,32c0,1.379 -1.121,2.5 -2.5,2.5l-16,0z"/>
  <path id="svg_10" fill="#e0995e" d="m40,13c0.551,0 1,0.449 1,1l0,32c0,0.551 -0.449,1 -1,1l-16,0c-0.551,0 -1,-0.449 -1,-1l0,-32c0,-0.551 0.449,-1 1,-1l16,0m0,-3l-16,0c-2.209,0 -4,1.791 -4,4l0,32c0,2.209 1.791,4 4,4l16,0c2.209,0 4,-1.791 4,-4l0,-32c0,-2.209 -1.791,-4 -4,-4l0,0z"/>
  <polygon stroke="null" opacity="0.2" id="svg_12" points="25.019059896469116,13.19254207611084 40.77005934715271,41.92662334442139 40.77005934715271,13.19254207611084 " fill="#FFFFFF"/>
  <polygon id="svg_14" points="40,50 24,50 20,42 44,42   " fill="#e0995e"/>
  <circle id="svg_16" r="2" fill="#ffffff" cy="46" cx="32"/>
 </g>
</svg>